<svg width="161" height="30" xmlns="http://www.w3.org/2000/svg">
 <!-- Created with Method Draw - http://github.com/duopixel/Method-Draw/ -->
 <g>
  <title>Layer 1</title>
  <path d="m151.99437,0.022472c-4.049667,0.769921 -5.396515,4.271742 -5.448563,6.274044c2.227844,0.166331 3.62323,-1.132831 4.189423,-1.892672c0.929504,-1.078646 1.154816,-2.597069 1.25914,-4.381372zm0.497299,6.916693c-2.928299,0 -4.563705,1.2349 -5.368439,1.248762c-0.925812,-0.074347 -3.621155,-1.193315 -5.193451,-1.210958c-5.506317,0.168855 -7.080338,6.344609 -7.013306,8.999642c0.449066,10.162704 6.45636,12.787511 7.438217,13.033216c0.789764,0.160036 3.444046,-1.253786 5.396286,-1.188274c2.132843,0.229355 3.625015,1.140409 4.479935,1.077398c1.084366,-0.078129 4.617859,-3.024254 5.683533,-7.569431c-2.146027,-1.87377 -3.472275,-3.57365 -3.589722,-5.184057c-0.057678,-0.729594 1.006058,-4.851388 2.699127,-6.009424c0.244141,-1.423908 -2.270615,-3.230894 -4.243347,-3.190572c-0.096863,-0.003778 -0.191971,-0.006301 -0.288834,-0.006301z" stroke-width="1.5" stroke="#ffffff" fill="#ffffff" id="svg_2"/>
  <text xml:space="preserve" y="22.6187" x="-0.1125" transform="matrix(1.15743, 0, 0, 1.10537, -0.0870989, 0.0943098)" text-anchor="start" stroke-width="0.05" stroke="#ffffff" fill="#ffffff" style="cursor: move; pointer-events: inherit;" font-weight="normal" font-size="20px" font-family="Junction,sans-serif" id="svg_3">ExamOnline</text>
 </g>
</svg>